<?xml version="1.0" encoding="utf-8"?>
<!-- Generator: Adobe Illustrator 21.0.0, SVG Export Plug-In . SVG Version: 6.00 Build 0)  -->
<svg version="1.1" id="Layer_1" xmlns="http://www.w3.org/2000/svg" xmlns:xlink="http://www.w3.org/1999/xlink" x="0px" y="0px"
	 viewBox="0 0 256 256" style="enable-background:new 0 0 256 256;" xml:space="preserve">
<style type="text/css">
	.st0{fill:#FFFFFF;}
</style>
<g>
	<path class="st0" d="M128,53.3c-47.9,0-91.3,26.2-123.3,68.7c-2.6,3.5-2.6,8.4,0,11.8c32,42.6,75.4,68.8,123.3,68.8
		s91.3-26.2,123.3-68.7c2.6-3.5,2.6-8.4,0-11.8C219.3,79.5,175.9,53.3,128,53.3z M131.4,180.6c-31.8,2-58-24.2-56-56
		c1.6-26.2,22.9-47.5,49.1-49.1c31.8-2,58,24.2,56,56C178.9,157.6,157.6,178.9,131.4,180.6z M129.8,156.3
		c-17.1,1.1-31.3-13-30.1-30.1c0.9-14.1,12.3-25.6,26.5-26.5c17.1-1.1,31.3,13,30.1,30.1C155.4,144,143.9,155.4,129.8,156.3z"/>
</g>
</svg>
